#N canvas 827 239 527 327 12;
#X obj 131 207 comport 1 9600;
#X obj 131 304 sel 13 10;
#X msg 118 153 open 1;
#X msg 181 153 close;
#X obj 131 362 zl group 100;
#X obj 131 391 list tosymbol;
#X obj 131 420 fromsymbol;
#X obj 384 180 float2bits;
#X obj 384 212 zl ecils 1;
#X obj 384 241 append 32 13;
#X obj 131 456 route analog1 analog2 analog3;
#X text 439 113 send data from puredata to arduino;
#X floatatom 131 485 5 0 0 0 - - - 12;
#X floatatom 186 485 5 0 0 0 - - - 12;
#X floatatom 242 485 5 0 0 0 - - - 12;
#X text 190 272 recieve data from serial;
#X text 242 361 collect parsed data stream into a zl.list using zl object from cyclone lib;
#X text 215 303 parse our data stream looking for newline character in ascii format('n' = 13);
#X text 242 394 convert ascii to pd symbol data type;
#X text 252 423 convert from symbol to anything;
#X text 335 461 parse our message/list using words in a format similar to OSC Messaging except without the address or slashes '';
#X text 112 68 make sure you close when you need to upload a sketch to your board \, there can only be one connection over a serial/com port;
#X obj 384 124 lfo 1;
#X floatatom 384 153 5 0 0 0 - - - 12;
#X connect 0 0 1 0;
#X connect 1 0 4 0;
#X connect 1 2 4 0;
#X connect 2 0 0 0;
#X connect 3 0 0 0;
#X connect 4 0 5 0;
#X connect 5 0 6 0;
#X connect 6 0 10 0;
#X connect 7 0 8 0;
#X connect 8 0 9 0;
#X connect 9 0 0 0;
#X connect 10 0 12 0;
#X connect 10 1 13 0;
#X connect 10 2 14 0;
#X connect 22 0 23 0;
#X connect 23 0 7 0;
