#N canvas 827 239 527 327 12;
#X obj 429 450 netreceive -u -b 9999;
#X obj 429 482 oscparse;
#X obj 429 546 route ack syn rst psh ack urg ece cwr, f 58;
#X obj 429 512 list trim;
#X floatatom 429 575 5 0 0 0 - - - 12;
#X obj 429 602 osc~;
#X floatatom 481 575 5 0 0 0 - - - 12;
#X obj 481 602 osc~;
#X floatatom 525 575 5 0 0 0 - - - 12;
#X obj 525 602 osc~;
#X floatatom 619 575 5 0 0 0 - - - 12;
#X obj 619 602 osc~;
#X floatatom 667 575 5 0 0 0 - - - 12;
#X obj 667 602 osc~;
#X floatatom 714 575 5 0 0 0 - - - 12;
#X obj 714 602 osc~;
#X floatatom 761 575 5 0 0 0 - - - 12;
#X obj 761 602 osc~;
#X floatatom 574 575 5 0 0 0 - - - 12;
#X obj 574 602 osc~, f 6;
#X obj 429 722 output~;
#X text 639 448 super simple mapping of the different osc messages into various cosine oscillators.;
#X text 639 489 what would be cool if with things such as syn or rst \, use those to trigger sounds instead of mapping the number to a frequency/note;
#X connect 0 0 1 0;
#X connect 1 0 3 0;
#X connect 2 0 4 0;
#X connect 2 1 6 0;
#X connect 2 2 8 0;
#X connect 2 3 18 0;
#X connect 2 4 10 0;
#X connect 2 5 12 0;
#X connect 2 6 14 0;
#X connect 2 7 16 0;
#X connect 3 0 2 0;
#X connect 4 0 5 0;
#X connect 5 0 20 0;
#X connect 6 0 7 0;
#X connect 7 0 20 0;
#X connect 8 0 9 0;
#X connect 9 0 20 0;
#X connect 10 0 11 0;
#X connect 11 0 20 0;
#X connect 12 0 13 0;
#X connect 13 0 20 0;
#X connect 14 0 15 0;
#X connect 15 0 20 0;
#X connect 16 0 17 0;
#X connect 17 0 20 0;
#X connect 18 0 19 0;
#X connect 19 0 20 0;
