#N canvas 827 239 527 327 12;
#X obj 166 141 osc.receive 9999;
#X obj 166 207 route /handtracking/hand0;
#X obj 166 256 unpack f f;
#X floatatom 166 285 16 0 0 0 empty - - 24;
#X floatatom 298 285 17 0 0 0 empty - - 24;
#X obj 548 256 osc~;
#X obj 548 430 out~;
#X obj 548 141 * 440 + 220;
#X msg 548 178 \$1 100;
#X obj 548 214 line;
#X obj 548 309 *~;
#X obj 166 350 clip 0 1;
#X connect 0 0 1 0;
#X connect 1 0 2 0;
#X connect 2 0 3 0;
#X connect 2 1 4 0;
#X connect 3 0 11 0;
#X connect 4 0 7 0;
#X connect 5 0 10 0;
#X connect 7 0 8 0;
#X connect 8 0 9 0;
#X connect 9 0 5 0;
#X connect 10 0 6 0;
#X connect 11 0 10 1;
