#N canvas 827 239 527 327 12;
#X obj 300 410 oscparse;
#X obj 300 381 netreceive -u -b 9999;
#X obj 295 438 list trim;
#X obj 296 466 route latitude longitude altitude;
#X msg 387 340 listen 0;
#X obj 250 530 symbol2any;
#X floatatom 250 559 11 0 0 0 - - - 16;
#X obj 251 503 any2symbol;
#X obj 340 530 symbol2any;
#X floatatom 340 559 11 0 0 0 - - - 16;
#X obj 341 503 any2symbol;
#X obj 430 530 symbol2any;
#X floatatom 430 559 11 0 0 0 - - - 16;
#X obj 431 503 any2symbol;
#X obj 250 644 line;
#X floatatom 250 673 10 0 0 0 - - - 16;
#X obj 314 644 line;
#X floatatom 314 673 9 0 0 0 - - - 16;
#X obj 378 644 line;
#X floatatom 378 673 20 0 0 0 - - - 16;
#X msg 250 615 \$1 1000;
#X msg 314 615 \$1 1000;
#X msg 378 615 \$1 1000;
#X obj 250 706 + 90;
#X obj 314 704 + 180;
#X obj 314 733 / 360;
#X floatatom 314 764 9 0 0 0 - - - 12;
#X obj 250 735 / 180;
#X floatatom 250 764 8 0 0 0 - - - 12;
#X obj 378 704 - 370;
#X obj 378 733 / 90;
#X floatatom 378 762 13 0 0 0 - - - 16;
#X obj 250 796 s lat;
#X obj 314 796 s long;
#X obj 378 796 s alti;
#X obj 1341 684 bl.vsaw~;
#X obj 1341 939 dac~;
#X floatatom 766 605 15 0 0 0 - - - 16;
#X obj 766 570 r alti;
#X obj 1382 520 r long;
#X obj 988 559 r lat;
#X obj 1341 748 lop~ 1500;
#X obj 1365 563 osc~;
#X obj 563 105 oscope~ 478 308 256 3 128 -1 1 0 0 0 0 90 90 90 227 223 217 150 142 130 0 empty;
#X obj 1361 622 +~ 1;
#X obj 1361 652 /~ 2;
#X obj 769 647 t f f;
#X obj 769 676 pipe 50;
#X obj 769 712 -;
#X obj 769 865 line;
#X msg 769 833 \$1 500;
#X obj 769 807 abs;
#X obj 988 584 t f f;
#X obj 988 613 pipe 50;
#X obj 988 649 -;
#X obj 988 673 abs;
#X obj 988 706 * 100000;
#X obj 73 150 keyboard 16 80 4 2 0 0 empty empty;
#X obj 73 238 unpack f f;
#X floatatom 73 267 5 0 0 0 - - - 12;
#X floatatom 119 267 5 0 0 0 - - - 12;
#X obj 1069 842 *;
#X obj 1069 871 mtof;
#X msg 988 759 \$1 100;
#X obj 988 788 line;
#X obj 1341 858 *~;
#X obj 1448 815 adsr~ 10 2000 0.8 3000;
#X obj 769 747 * 1e+08;
#X obj 769 784 + 1000;
#X floatatom 786 901 16 0 0 0 - - - 24;
#X msg 284 340 listen 9999;
#X obj 1422 684 s~ long_phase;
#X obj 563 72 r~ long_phase, f 47;
#X obj 769 945 s filter_cutoff;
#X obj 1388 717 r filter_cutoff;
#X obj 1080 796 r midi_note;
#X obj 1448 770 r midi_velocity;
#X obj 1069 911 s freq_mod;
#X obj 1276 652 r freq_mod;
#X text 1438 592 band-limited sawtooth wave oscillator;
#X text 1069 578 frequency modulation;
#X text 846 568 filter cutoff;
#X obj 73 294 s midi_note;
#X obj 158 294 s midi_velocity;
#X obj 74 91 keymap;
#X obj 74 120 pack f f;
#X obj 74 53 tgl 25 0 empty empty empty 17 7 0 10 #e3dfd9 #5a5a5a #5a5a5a 0 1;
#X text 119 61 turn on if you want to use computer keyboard to create midi notes;
#X text 514 558 values from pthon-osc-handler script;
#X text 479 758 normalize and linearly interpolate (lerp) between old and new values, f 35;
#X text 277 311 connect;
#X text 388 317 disconnect;
#N canvas 0 0 450 250 (subpatch) 0;
#X array long 100 float 2;
#X array lat 100 float 0;
#X array alt 100 float 0;
#X coords 0 1 100 0 540 309 1;
#X restore 1080 105 graph;
#N canvas 733 172 450 300 graph 1;
#X obj -73 1000 tabwrite long;
#X obj 23 1000 tabwrite alt;
#X obj -157 1000 tabwrite lat;
#X obj -407 908 metro 100;
#X obj -407 873 tgl 25 0 empty empty empty 17 7 0 10 #191919 #e1e1e1 #e1e1e1 0 1;
#X obj -407 937 f;
#X obj -365 937 + 1;
#X obj -407 966 mod 100;
#X msg -289 842 \; lat edit 0 \; long edit 0 \; alt edit 0 \; long color 9 \; lat color 90 \; alt color 900 \;;
#X obj -337 808 loadbang;
#X obj -544 778 inlet (toggle) switch on write to graph;
#X obj -169 777 inlet (float) value 1;
#X obj -43 777 inlet (float) value 2;
#X obj 83 777 inlet (float) value 3;
#X connect 3 0 5 0;
#X connect 4 0 3 0;
#X connect 5 0 6 0;
#X connect 5 0 7 0;
#X connect 6 0 5 1;
#X connect 7 0 2 1;
#X connect 7 0 0 1;
#X connect 7 0 1 1;
#X connect 9 0 8 0;
#X connect 9 0 4 0;
#X connect 10 0 4 0;
#X connect 11 0 2 0;
#X connect 12 0 0 0;
#X connect 13 0 1 0;
#X restore 99 796 pd graph writing;
#X obj 99 759 tgl 25 0 empty empty empty 17 7 0 10 #191919 #e1e1e1 #e1e1e1 0 1;
#X connect 0 0 2 0;
#X connect 1 0 0 0;
#X connect 2 0 3 0;
#X connect 3 0 7 0;
#X connect 3 1 10 0;
#X connect 3 2 13 0;
#X connect 4 0 1 0;
#X connect 5 0 6 0;
#X connect 6 0 20 0;
#X connect 7 0 5 0;
#X connect 8 0 9 0;
#X connect 9 0 21 0;
#X connect 10 0 8 0;
#X connect 11 0 12 0;
#X connect 12 0 22 0;
#X connect 13 0 11 0;
#X connect 14 0 15 0;
#X connect 15 0 23 0;
#X connect 16 0 17 0;
#X connect 17 0 24 0;
#X connect 18 0 19 0;
#X connect 19 0 29 0;
#X connect 20 0 14 0;
#X connect 21 0 16 0;
#X connect 22 0 18 0;
#X connect 23 0 27 0;
#X connect 24 0 25 0;
#X connect 25 0 26 0;
#X connect 26 0 33 0;
#X connect 26 0 93 2;
#X connect 27 0 28 0;
#X connect 28 0 32 0;
#X connect 28 0 93 1;
#X connect 29 0 30 0;
#X connect 30 0 31 0;
#X connect 31 0 34 0;
#X connect 31 0 93 3;
#X connect 35 0 41 0;
#X connect 37 0 46 0;
#X connect 38 0 37 0;
#X connect 39 0 42 1;
#X connect 40 0 52 0;
#X connect 41 0 65 0;
#X connect 42 0 44 0;
#X connect 44 0 45 0;
#X connect 45 0 35 1;
#X connect 45 0 71 0;
#X connect 46 0 47 0;
#X connect 46 1 48 1;
#X connect 47 0 48 0;
#X connect 48 0 67 0;
#X connect 49 0 69 0;
#X connect 49 0 73 0;
#X connect 50 0 49 0;
#X connect 51 0 50 0;
#X connect 52 0 53 0;
#X connect 52 1 54 1;
#X connect 53 0 54 0;
#X connect 54 0 55 0;
#X connect 55 0 56 0;
#X connect 56 0 63 0;
#X connect 57 0 58 0;
#X connect 58 0 59 0;
#X connect 58 1 60 0;
#X connect 59 0 82 0;
#X connect 60 0 83 0;
#X connect 61 0 62 0;
#X connect 62 0 77 0;
#X connect 63 0 64 0;
#X connect 64 0 61 0;
#X connect 65 0 36 0;
#X connect 65 0 36 1;
#X connect 66 0 65 1;
#X connect 67 0 68 0;
#X connect 68 0 51 0;
#X connect 70 0 1 0;
#X connect 72 0 43 0;
#X connect 74 0 41 1;
#X connect 75 0 61 1;
#X connect 76 0 66 0;
#X connect 78 0 35 0;
#X connect 84 0 85 0;
#X connect 84 1 85 1;
#X connect 85 0 57 0;
#X connect 86 0 84 0;
#X connect 94 0 93 0;
