#N canvas 827 239 527 327 12;
#X obj 231 17 tgl 25 0 empty empty empty 17 7 0 10 #191919 #ffffff #ffffff 0 1;
#X obj 198 55 metro 400;
#X obj 270 124 oscformat metro_state;
#X obj 649 205 oscparse;
#X msg 369 316 disconnect;
#X listbox 649 234 34 0 0 0 - - - 0;
#X obj 356 266 loadbang;
#X msg 356 290 connect localhost 9999;
#X obj 313 163 oscformat metro_bang;
#X floatatom 649 328 5 0 0 0 - - - 12;
#X obj 733 328 bng 25 250 50 0 empty empty empty 17 7 0 10 #191919 #e1e1e1 #e1e1e1;
#X obj 649 264 list trim;
#X obj 183 124 f 0;
#X obj 224 124 + 1;
#X obj 183 158 mod 16;
#X obj 339 206 oscformat metro_counter;
#X obj 649 299 route metro_state metro_bang metro_counter;
#X floatatom 817 328 5 0 0 0 - - - 12;
#X text 310 44 osc sender;
#X text 679 54 osc reciever;
#X text 429 30 these can be on separete instances of pd \; if you want to go from different devices you have to find the broadcast address of your network usually ending in 0.255;
#X text 481 108 e.g. 10.216.216.255;
#X msg 649 104 listen 9999;
#X msg 748 104 listen 0;
#X obj 649 140 netreceive 9999;
#X obj 339 345 netsend;
#X connect 0 0 1 0;
#X connect 0 0 2 0;
#X connect 1 0 8 0;
#X connect 1 0 12 0;
#X connect 2 0 25 0;
#X connect 3 0 5 0;
#X connect 4 0 25 0;
#X connect 5 0 11 0;
#X connect 6 0 7 0;
#X connect 7 0 25 0;
#X connect 8 0 25 0;
#X connect 11 0 16 0;
#X connect 12 0 13 0;
#X connect 12 0 14 0;
#X connect 13 0 12 1;
#X connect 14 0 15 0;
#X connect 15 0 25 0;
#X connect 16 0 9 0;
#X connect 16 1 10 0;
#X connect 16 2 17 0;
#X connect 22 0 24 0;
#X connect 23 0 24 0;
#X connect 24 0 3 0;
